<svg xmlns="http://www.w3.org/2000/svg" viewBox="0 0 100 112"><defs><style>.cls-1{fill:#4bedff;}.cls-2{fill:#f50057;}</style></defs><title>logoM</title><g id="Colors"><path class="cls-1" d="M100,78.33V33.67a11.31,11.31,0,0,0-5.67-9.81L55.67,1.52a11.32,11.32,0,0,0-11.34,0L5.67,23.84A11.31,11.31,0,0,0,0,33.65V78.33a11.31,11.31,0,0,0,5.67,9.81l38.66,22.34a11.32,11.32,0,0,0,11.34,0l38.7-22.32A11.33,11.33,0,0,0,100,78.33Z"/><path class="cls-2" d="M22,86.68l5.71-62.33a4.11,4.11,0,0,1,3.07-3.6l19.43-5a4.12,4.12,0,0,1,4.42,1.69l34.92,52a4.1,4.1,0,0,1-2.39,6.26L70,80.07a4.11,4.11,0,0,1-4.68-2.13l-1-2a4.11,4.11,0,0,0-4.68-2.14l-9.27,2.37a4.11,4.11,0,0,0-3.08,4.08l.06,2.27a4.1,4.1,0,0,1-3.09,4.07L27.11,91A4.1,4.1,0,0,1,22,86.68ZM50.86,58.57a4.11,4.11,0,0,0,2.64-5.84L48.34,42.65l-1.68-3.33a2.07,2.07,0,0,1-.15-.34l-1.58-4a11.69,11.69,0,0,1,.44,2.67c0,.65,0,1.28.05,1.92l0,3.84.31,11.32a4.1,4.1,0,0,0,5.11,3.86Z"/><path d="M26.1,85.64,31.81,23.3a4.1,4.1,0,0,1,3.07-3.59l19.43-5a4.11,4.11,0,0,1,4.42,1.69l34.92,52a4.09,4.09,0,0,1-2.39,6.25L74.05,79a4.09,4.09,0,0,1-4.67-2.13l-1-2a4.1,4.1,0,0,0-4.68-2.14l-9.27,2.37a4.1,4.1,0,0,0-3.08,4.08l.06,2.26a4.1,4.1,0,0,1-3.09,4.08L31.19,90A4.09,4.09,0,0,1,26.1,85.64ZM54.94,57.53a4.1,4.1,0,0,0,2.64-5.84L52.42,41.61l-1.68-3.33a2.07,2.07,0,0,1-.15-.34l-1.58-4a11.84,11.84,0,0,1,.44,2.68c0,.64,0,1.28,0,1.91l0,3.85.31,11.32a4.1,4.1,0,0,0,5.11,3.86Z"/></g></svg>