<svg xmlns="http://www.w3.org/2000/svg" viewBox="0 0 200 224"><defs><style>.cls-1{fill:#4bedff;}.cls-2{fill:#f50057;}</style></defs><title>logoL</title><g id="Colors"><path class="cls-1" d="M200,156.66V67.34a22.69,22.69,0,0,0-11.33-19.62L111.33,3A22.65,22.65,0,0,0,88.67,3L11.33,47.68A22.69,22.69,0,0,0,0,67.3v89.36a22.69,22.69,0,0,0,11.33,19.62L88.67,221a22.65,22.65,0,0,0,22.66,0l77.42-44.64A22.71,22.71,0,0,0,200,156.66Z"/><path class="cls-2" d="M44,173.36,55.47,48.69A8.19,8.19,0,0,1,61.6,41.5l38.87-9.93a8.19,8.19,0,0,1,8.83,3.37l69.84,103.9a8.19,8.19,0,0,1-4.78,12.51L140,160.15a8.21,8.21,0,0,1-9.36-4.27l-2-3.9a8.2,8.2,0,0,0-9.36-4.27l-18.54,4.74a8.2,8.2,0,0,0-6.17,8.15l.12,4.53a8.2,8.2,0,0,1-6.16,8.16l-34.31,8.76A8.2,8.2,0,0,1,44,173.36Zm57.7-56.22A8.19,8.19,0,0,0,107,105.47L96.67,85.31l-3.35-6.66c-.11-.23-.21-.45-.3-.69l-3.17-8a23.73,23.73,0,0,1,.89,5.36c0,1.28,0,2.56.11,3.82l0,7.7.61,22.64a8.2,8.2,0,0,0,10.23,7.71Z"/><path d="M52.19,171.28,63.63,46.61a8.17,8.17,0,0,1,6.13-7.19l38.87-9.94a8.19,8.19,0,0,1,8.83,3.37L187.3,136.76a8.19,8.19,0,0,1-4.78,12.51l-34.41,8.79a8.19,8.19,0,0,1-9.36-4.27l-1.95-3.89a8.21,8.21,0,0,0-9.36-4.28l-18.54,4.74a8.21,8.21,0,0,0-6.17,8.16l.12,4.53a8.19,8.19,0,0,1-6.16,8.15L62.38,180A8.2,8.2,0,0,1,52.19,171.28Zm57.7-56.22a8.2,8.2,0,0,0,5.26-11.68L104.83,83.22l-3.35-6.66c-.11-.22-.21-.45-.3-.68l-3.17-8a23.66,23.66,0,0,1,.89,5.35c0,1.29,0,2.56.11,3.83l0,7.69.62,22.64a8.19,8.19,0,0,0,10.22,7.72Z"/></g></svg>