<svg xmlns="http://www.w3.org/2000/svg" viewBox="0 0 400 448"><defs><style>.cls-1{fill:#4bedff;}.cls-2{fill:#f50057;}</style></defs><title>logoXL</title><g id="Colors"><path class="cls-1" d="M400,313.33V134.67a45.37,45.37,0,0,0-22.67-39.23L222.67,6.08a45.29,45.29,0,0,0-45.34,0L22.67,95.36A45.37,45.37,0,0,0,0,134.59V313.33a45.37,45.37,0,0,0,22.67,39.23l154.66,89.36a45.29,45.29,0,0,0,45.34,0l154.82-89.28A45.36,45.36,0,0,0,400,313.33Z"/><path class="cls-2" d="M88.07,346.72,110.93,97.39A16.41,16.41,0,0,1,123.2,83l77.74-19.86a16.38,16.38,0,0,1,17.66,6.74l139.68,207.8a16.4,16.4,0,0,1-9.55,25L279.9,320.3a16.39,16.39,0,0,1-18.72-8.55l-3.9-7.79a16.4,16.4,0,0,0-18.72-8.54l-37.08,9.48a16.39,16.39,0,0,0-12.33,16.3l.23,9.07a16.39,16.39,0,0,1-12.33,16.3l-68.6,17.53A16.38,16.38,0,0,1,88.07,346.72ZM203.45,234.29A16.4,16.4,0,0,0,214,210.93l-20.64-40.31-6.71-13.32c-.22-.45-.43-.91-.61-1.38l-6.33-16.1a48.12,48.12,0,0,1,1.78,10.72q0,3.86.22,7.65l.08,15.38L183,218.85a16.4,16.4,0,0,0,20.44,15.44Z"/><path d="M104.39,342.55,127.25,93.22a16.41,16.41,0,0,1,12.27-14.39L217.26,59a16.39,16.39,0,0,1,17.66,6.73L374.6,273.51a16.4,16.4,0,0,1-9.55,25l-68.83,17.59a16.39,16.39,0,0,1-18.72-8.55l-3.9-7.79a16.4,16.4,0,0,0-18.72-8.54l-37.08,9.48A16.39,16.39,0,0,0,205.47,317l.23,9.07a16.39,16.39,0,0,1-12.33,16.3l-68.6,17.53A16.39,16.39,0,0,1,104.39,342.55ZM219.78,230.12a16.4,16.4,0,0,0,10.53-23.36l-20.64-40.31L203,153.13c-.22-.45-.42-.91-.61-1.38L196,135.65a48.12,48.12,0,0,1,1.78,10.72q0,3.85.22,7.65l.08,15.38,1.23,45.28a16.4,16.4,0,0,0,20.45,15.44Z"/></g></svg>