<svg xmlns="http://www.w3.org/2000/svg" viewBox="0 0 50 56"><defs><style>.cls-1{fill:#4bedff;}.cls-2{fill:#f50057;}</style></defs><title>logoS</title><g id="Colors"><path class="cls-1" d="M50,39.17V16.83a5.66,5.66,0,0,0-2.83-4.9L27.83.76a5.67,5.67,0,0,0-5.66,0L2.83,11.92A5.66,5.66,0,0,0,0,16.82V39.17a5.66,5.66,0,0,0,2.83,4.9L22.17,55.24a5.67,5.67,0,0,0,5.66,0L47.19,44.08A5.67,5.67,0,0,0,50,39.17Z"/><path class="cls-2" d="M11,43.34l2.86-31.17a2,2,0,0,1,1.53-1.79l9.72-2.49a2.06,2.06,0,0,1,2.21.84l17.45,26a2,2,0,0,1-1.19,3.13L35,40A2,2,0,0,1,32.65,39l-.49-1a2,2,0,0,0-2.34-1.07l-4.64,1.18a2.06,2.06,0,0,0-1.54,2l0,1.13a2,2,0,0,1-1.54,2l-8.57,2.19A2,2,0,0,1,11,43.34ZM25.43,29.29a2,2,0,0,0,1.32-2.92l-2.58-5-.84-1.67c0-.05,0-.11-.08-.17l-.79-2a5.61,5.61,0,0,1,.22,1.34l0,.95V21.7l.16,5.66a2,2,0,0,0,2.55,1.93Z"/><path d="M13.05,42.82l2.86-31.17a2.06,2.06,0,0,1,1.53-1.8l9.72-2.48a2.06,2.06,0,0,1,2.21.84l17.45,26a2.05,2.05,0,0,1-1.19,3.13L37,39.52a2.06,2.06,0,0,1-2.34-1.07l-.49-1a2,2,0,0,0-2.34-1.06l-4.64,1.18a2.06,2.06,0,0,0-1.54,2l0,1.13a2,2,0,0,1-1.54,2L15.6,45A2,2,0,0,1,13.05,42.82ZM27.47,28.76a2,2,0,0,0,1.32-2.91l-2.58-5-.84-1.67L25.29,19l-.79-2a5.61,5.61,0,0,1,.22,1.34l0,.95v1.93l.16,5.65a2,2,0,0,0,2.55,1.93Z"/></g></svg>